<?xml version="1.0" encoding="UTF-8" standalone="no"?>
<!DOCTYPE svg PUBLIC "-//W3C//DTD SVG 1.1//EN"
 "http://www.w3.org/Graphics/SVG/1.1/DTD/svg11.dtd">
<!-- Generated by graphviz version 2.26.3 (20100126.1600)
 -->
<!-- Title: G Pages: 1 -->
<svg width="1162pt" height="1212pt"
 viewBox="0.00 0.00 1162.00 1212.00" xmlns="http://www.w3.org/2000/svg" xmlns:xlink="http://www.w3.org/1999/xlink">
<g id="graph1" class="graph" transform="scale(1 1) rotate(0) translate(4 1208)">
<title>G</title>
<polygon fill="white" stroke="white" points="-4,5 -4,-1208 1159,-1208 1159,5 -4,5"/>
<g id="graph2" class="cluster"><title>cluster_Global</title>
<polyline fill="none" stroke="gray" points="228,-190 1134,-190 "/>
<path fill="none" stroke="gray" d="M1134,-190C1140,-190 1146,-196 1146,-202"/>
<polyline fill="none" stroke="gray" points="1146,-202 1146,-1184 "/>
<path fill="none" stroke="gray" d="M1146,-1184C1146,-1190 1140,-1196 1134,-1196"/>
<polyline fill="none" stroke="gray" points="1134,-1196 228,-1196 "/>
<path fill="none" stroke="gray" d="M228,-1196C222,-1196 216,-1190 216,-1184"/>
<polyline fill="none" stroke="gray" points="216,-1184 216,-202 "/>
<path fill="none" stroke="gray" d="M216,-202C216,-196 222,-190 228,-190"/>
<text text-anchor="middle" x="681" y="-1182.1" font-family="Times Roman,serif" font-size="11.00" fill="gray">\</text>
</g>
<g id="graph3" class="cluster"><title>cluster_\Command</title>
<polyline fill="none" stroke="gray" points="962,-848 1126,-848 "/>
<path fill="none" stroke="gray" d="M1126,-848C1132,-848 1138,-854 1138,-860"/>
<polyline fill="none" stroke="gray" points="1138,-860 1138,-910 "/>
<path fill="none" stroke="gray" d="M1138,-910C1138,-916 1132,-922 1126,-922"/>
<polyline fill="none" stroke="gray" points="1126,-922 962,-922 "/>
<path fill="none" stroke="gray" d="M962,-922C956,-922 950,-916 950,-910"/>
<polyline fill="none" stroke="gray" points="950,-910 950,-860 "/>
<path fill="none" stroke="gray" d="M950,-860C950,-854 956,-848 962,-848"/>
<text text-anchor="middle" x="1044" y="-908.1" font-family="Times Roman,serif" font-size="11.00" fill="gray">Command</text>
</g>
<g id="graph4" class="cluster"><title>cluster_\Model</title>
<polyline fill="none" stroke="gray" points="615,-930 1074,-930 "/>
<path fill="none" stroke="gray" d="M1074,-930C1080,-930 1086,-936 1086,-942"/>
<polyline fill="none" stroke="gray" points="1086,-942 1086,-1154 "/>
<path fill="none" stroke="gray" d="M1086,-1154C1086,-1160 1080,-1166 1074,-1166"/>
<polyline fill="none" stroke="gray" points="1074,-1166 615,-1166 "/>
<path fill="none" stroke="gray" d="M615,-1166C609,-1166 603,-1160 603,-1154"/>
<polyline fill="none" stroke="gray" points="603,-1154 603,-942 "/>
<path fill="none" stroke="gray" d="M603,-942C603,-936 609,-930 615,-930"/>
<text text-anchor="middle" x="844.5" y="-1152.1" font-family="Times Roman,serif" font-size="11.00" fill="gray">Model</text>
</g>
<g id="graph5" class="cluster"><title>cluster_\Hogebrandt</title>
<polyline fill="none" stroke="gray" points="1004,-496 1084,-496 "/>
<path fill="none" stroke="gray" d="M1084,-496C1090,-496 1096,-502 1096,-508"/>
<polyline fill="none" stroke="gray" points="1096,-508 1096,-828 "/>
<path fill="none" stroke="gray" d="M1096,-828C1096,-834 1090,-840 1084,-840"/>
<polyline fill="none" stroke="gray" points="1084,-840 1004,-840 "/>
<path fill="none" stroke="gray" d="M1004,-840C998,-840 992,-834 992,-828"/>
<polyline fill="none" stroke="gray" points="992,-828 992,-508 "/>
<path fill="none" stroke="gray" d="M992,-508C992,-502 998,-496 1004,-496"/>
<text text-anchor="middle" x="1044" y="-826.1" font-family="Times Roman,serif" font-size="11.00" fill="gray">Hogebrandt</text>
</g>
<g id="graph6" class="cluster"><title>cluster_\Controller</title>
<polyline fill="none" stroke="gray" points="236,-198 1076,-198 "/>
<path fill="none" stroke="gray" d="M1076,-198C1082,-198 1088,-204 1088,-210"/>
<polyline fill="none" stroke="gray" points="1088,-210 1088,-476 "/>
<path fill="none" stroke="gray" d="M1088,-476C1088,-482 1082,-488 1076,-488"/>
<polyline fill="none" stroke="gray" points="1076,-488 236,-488 "/>
<path fill="none" stroke="gray" d="M236,-488C230,-488 224,-482 224,-476"/>
<polyline fill="none" stroke="gray" points="224,-476 224,-210 "/>
<path fill="none" stroke="gray" d="M224,-210C224,-204 230,-198 236,-198"/>
<text text-anchor="middle" x="656" y="-474.1" font-family="Times Roman,serif" font-size="11.00" fill="gray">Controller</text>
</g>
<!-- \\Command\\GenerateSitemapCommand -->
<g id="node3" class="node"><title>\\Command\\GenerateSitemapCommand</title>
<polygon fill="none" stroke="black" points="1129,-892 959,-892 959,-856 1129,-856 1129,-892"/>
<text text-anchor="middle" x="1044" y="-871.1" font-family="Times Roman,serif" font-size="11.00">GenerateSitemapCommand</text>
</g>
<!-- \\Illuminate\\Console\\Command -->
<g id="node27" class="node"><title>\\Illuminate\\Console\\Command</title>
<ellipse fill="none" stroke="black" cx="638" cy="-18" rx="156.978" ry="18.3848"/>
<text text-anchor="middle" x="638" y="-14.4" font-family="Times Roman,serif" font-size="14.00" fill="gray">\Illuminate\Console\Command</text>
</g>
<!-- \\Command\\GenerateSitemapCommand&#45;&gt;\\Illuminate\\Console\\Command -->
<g id="edge7" class="edge"><title>\\Command\\GenerateSitemapCommand&#45;&gt;\\Illuminate\\Console\\Command</title>
<path fill="none" stroke="black" d="M962.705,-855.737C957.94,-852.44 953.622,-848.561 950,-844 839.916,-705.377 1008.14,-178.131 886,-50 850.411,-12.6644 794.436,-3.09207 744.665,-3.55447"/>
<polygon fill="none" stroke="black" points="744.392,-0.0596805 734.475,-3.78713 744.552,-7.05786 744.392,-0.0596805"/>
</g>
<!-- \\Model\\User -->
<g id="node5" class="node"><title>\\Model\\User</title>
<polygon fill="none" stroke="black" points="1071,-1028 1017,-1028 1017,-992 1071,-992 1071,-1028"/>
<text text-anchor="middle" x="1044" y="-1007.1" font-family="Times Roman,serif" font-size="11.00">User</text>
</g>
<!-- \\Model\\Base -->
<g id="node8" class="node"><title>\\Model\\Base</title>
<polygon fill="none" stroke="black" points="665,-1055 611,-1055 611,-1019 665,-1019 665,-1055"/>
<text text-anchor="middle" x="638" y="-1034.1" font-family="Times Roman,serif" font-size="11.00">Base</text>
</g>
<!-- \\Model\\User&#45;&gt;\\Model\\Base -->
<g id="edge9" class="edge"><title>\\Model\\User&#45;&gt;\\Model\\Base</title>
<path fill="none" stroke="black" d="M1016.73,-1011.81C945.947,-1016.52 756.247,-1029.14 675.366,-1034.52"/>
<polygon fill="none" stroke="black" points="674.896,-1031.04 665.151,-1035.19 675.361,-1038.02 674.896,-1031.04"/>
</g>
<!-- \\Illuminate\\Auth\\UserInterface -->
<g id="node30" class="node"><title>\\Illuminate\\Auth\\UserInterface</title>
<ellipse fill="none" stroke="black" cx="638" cy="-164" rx="159.806" ry="18.3848"/>
<text text-anchor="middle" x="638" y="-160.4" font-family="Times Roman,serif" font-size="14.00" fill="gray">\Illuminate\Auth\UserInterface</text>
</g>
<!-- \\Model\\User&#45;&gt;\\Illuminate\\Auth\\UserInterface -->
<g id="edge11" class="edge"><title>\\Model\\User&#45;&gt;\\Illuminate\\Auth\\UserInterface</title>
<path fill="none" stroke="black" stroke-dasharray="1,5" d="M1016.86,-1010.05C995.24,-1008.51 966.026,-1002.58 950,-983 838.569,-846.886 1007.91,-320.815 886,-194 849.017,-155.529 790.291,-147.109 739.268,-148.74"/>
<polygon fill="none" stroke="black" points="739.008,-145.249 729.175,-149.195 739.323,-152.241 739.008,-145.249"/>
</g>
<!-- \\Illuminate\\Auth\\Reminders\\RemindableInterface -->
<g id="node32" class="node"><title>\\Illuminate\\Auth\\Reminders\\RemindableInterface</title>
<ellipse fill="none" stroke="black" cx="638" cy="-110" rx="246.987" ry="18.3848"/>
<text text-anchor="middle" x="638" y="-106.4" font-family="Times Roman,serif" font-size="14.00" fill="gray">\Illuminate\Auth\Reminders\RemindableInterface</text>
</g>
<!-- \\Model\\User&#45;&gt;\\Illuminate\\Auth\\Reminders\\RemindableInterface -->
<g id="edge13" class="edge"><title>\\Model\\User&#45;&gt;\\Illuminate\\Auth\\Reminders\\RemindableInterface</title>
<path fill="none" stroke="black" stroke-dasharray="1,5" d="M1016.83,-1010.07C995.196,-1008.55 965.973,-1002.62 950,-983 830.966,-836.791 1017.1,-272.493 886,-137 881.093,-131.929 875.806,-127.394 870.208,-123.347"/>
<polygon fill="none" stroke="black" points="872.058,-120.374 861.79,-117.762 868.188,-126.207 872.058,-120.374"/>
</g>
<!-- \\Model\\Capability -->
<g id="node6" class="node"><title>\\Model\\Capability</title>
<polygon fill="none" stroke="black" points="1078,-1136 1010,-1136 1010,-1100 1078,-1100 1078,-1136"/>
<text text-anchor="middle" x="1044" y="-1115.1" font-family="Times Roman,serif" font-size="11.00">Capability</text>
</g>
<!-- \\Model\\Capability&#45;&gt;\\Model\\Base -->
<g id="edge15" class="edge"><title>\\Model\\Capability&#45;&gt;\\Model\\Base</title>
<path fill="none" stroke="black" d="M1009.73,-1111.16C934.081,-1096.07 753.302,-1060 675.098,-1044.4"/>
<polygon fill="none" stroke="black" points="675.696,-1040.95 665.204,-1042.43 674.326,-1047.82 675.696,-1040.95"/>
</g>
<!-- \\Model\\Role -->
<g id="node7" class="node"><title>\\Model\\Role</title>
<polygon fill="none" stroke="black" points="1071,-1082 1017,-1082 1017,-1046 1071,-1046 1071,-1082"/>
<text text-anchor="middle" x="1044" y="-1061.1" font-family="Times Roman,serif" font-size="11.00">Role</text>
</g>
<!-- \\Model\\Role&#45;&gt;\\Model\\Base -->
<g id="edge17" class="edge"><title>\\Model\\Role&#45;&gt;\\Model\\Base</title>
<path fill="none" stroke="black" d="M1016.73,-1062.19C945.947,-1057.48 756.247,-1044.86 675.366,-1039.48"/>
<polygon fill="none" stroke="black" points="675.361,-1035.98 665.151,-1038.81 674.896,-1042.96 675.361,-1035.98"/>
</g>
<!-- \\Eloquent -->
<g id="node36" class="node"><title>\\Eloquent</title>
<ellipse fill="none" stroke="black" cx="259" cy="-114" rx="58.1882" ry="18.3848"/>
<text text-anchor="middle" x="259" y="-110.4" font-family="Times Roman,serif" font-size="14.00" fill="gray">\Eloquent</text>
</g>
<!-- \\Model\\Base&#45;&gt;\\Eloquent -->
<g id="edge19" class="edge"><title>\\Model\\Base&#45;&gt;\\Eloquent</title>
<path fill="none" stroke="black" d="M628.112,-1018.7C591.771,-950.814 463.875,-706.24 390,-492 345.583,-363.188 375.575,-317.493 318,-194 308.709,-174.072 294.053,-154.165 281.672,-139.194"/>
<polygon fill="none" stroke="black" points="284.214,-136.779 275.077,-131.415 278.875,-141.306 284.214,-136.779"/>
</g>
<!-- \\Model\\Message -->
<g id="node9" class="node"><title>\\Model\\Message</title>
<polygon fill="none" stroke="black" points="1076,-974 1012,-974 1012,-938 1076,-938 1076,-974"/>
<text text-anchor="middle" x="1044" y="-953.1" font-family="Times Roman,serif" font-size="11.00">Message</text>
</g>
<!-- \\Model\\Message&#45;&gt;\\Eloquent -->
<g id="edge21" class="edge"><title>\\Model\\Message&#45;&gt;\\Eloquent</title>
<path fill="none" stroke="black" d="M1011.38,-954.515C990.45,-951.71 964.552,-944.412 950,-926 833.508,-778.604 1023.78,-210.719 886,-83 805.165,-8.06921 499.479,-70.2228 390,-83 363.595,-86.0818 334.791,-92.5453 310.934,-98.7769"/>
<polygon fill="none" stroke="black" points="309.791,-95.4595 301.033,-101.423 311.598,-102.222 309.791,-95.4595"/>
</g>
<!-- \\Hogebrandt\\Shortcode -->
<g id="node11" class="node"><title>\\Hogebrandt\\Shortcode</title>
<polygon fill="none" stroke="black" points="1080,-810 1008,-810 1008,-774 1080,-774 1080,-810"/>
<text text-anchor="middle" x="1044" y="-789.1" font-family="Times Roman,serif" font-size="11.00">Shortcode</text>
</g>
<!-- \\Hogebrandt\\Utilities -->
<g id="node12" class="node"><title>\\Hogebrandt\\Utilities</title>
<polygon fill="none" stroke="black" points="1072,-756 1016,-756 1016,-720 1072,-720 1072,-756"/>
<text text-anchor="middle" x="1044" y="-735.1" font-family="Times Roman,serif" font-size="11.00">Utilities</text>
</g>
<!-- \\Hogebrandt\\Site -->
<g id="node13" class="node"><title>\\Hogebrandt\\Site</title>
<polygon fill="none" stroke="black" points="1071,-702 1017,-702 1017,-666 1071,-666 1071,-702"/>
<text text-anchor="middle" x="1044" y="-681.1" font-family="Times Roman,serif" font-size="11.00">Site</text>
</g>
<!-- \\Hogebrandt\\Data -->
<g id="node14" class="node"><title>\\Hogebrandt\\Data</title>
<polygon fill="none" stroke="black" points="1071,-648 1017,-648 1017,-612 1071,-612 1071,-648"/>
<text text-anchor="middle" x="1044" y="-627.1" font-family="Times Roman,serif" font-size="11.00">Data</text>
</g>
<!-- \\Hogebrandt\\MobileDetect -->
<g id="node15" class="node"><title>\\Hogebrandt\\MobileDetect</title>
<polygon fill="none" stroke="black" points="1088,-594 1000,-594 1000,-558 1088,-558 1088,-594"/>
<text text-anchor="middle" x="1044" y="-573.1" font-family="Times Roman,serif" font-size="11.00">MobileDetect</text>
</g>
<!-- \\Hogebrandt\\Notification -->
<g id="node16" class="node"><title>\\Hogebrandt\\Notification</title>
<polygon fill="none" stroke="black" points="1083,-540 1005,-540 1005,-504 1083,-504 1083,-540"/>
<text text-anchor="middle" x="1044" y="-519.1" font-family="Times Roman,serif" font-size="11.00">Notification</text>
</g>
<!-- \\Controller\\Authorized -->
<g id="node18" class="node"><title>\\Controller\\Authorized</title>
<polygon fill="none" stroke="black" points="675,-296 601,-296 601,-260 675,-260 675,-296"/>
<text text-anchor="middle" x="638" y="-275.1" font-family="Times Roman,serif" font-size="11.00">Authorized</text>
</g>
<!-- \\Controller\\Base -->
<g id="node22" class="node"><title>\\Controller\\Base</title>
<polygon fill="none" stroke="black" points="286,-350 232,-350 232,-314 286,-314 286,-350"/>
<text text-anchor="middle" x="259" y="-329.1" font-family="Times Roman,serif" font-size="11.00">Base</text>
</g>
<!-- \\Controller\\Authorized&#45;&gt;\\Controller\\Base -->
<g id="edge23" class="edge"><title>\\Controller\\Authorized&#45;&gt;\\Controller\\Base</title>
<path fill="none" stroke="black" d="M600.461,-280.971C551.757,-285.081 464.232,-293.336 390,-305 358.104,-310.012 322.211,-317.544 296.072,-323.381"/>
<polygon fill="none" stroke="black" points="295.195,-319.991 286.211,-325.606 296.736,-326.819 295.195,-319.991"/>
</g>
<!-- \\Controller\\Documents -->
<g id="node19" class="node"><title>\\Controller\\Documents</title>
<polygon fill="none" stroke="black" points="678,-458 598,-458 598,-422 678,-422 678,-458"/>
<text text-anchor="middle" x="638" y="-437.1" font-family="Times Roman,serif" font-size="11.00">Documents</text>
</g>
<!-- \\Controller\\Documents&#45;&gt;\\Controller\\Base -->
<g id="edge25" class="edge"><title>\\Controller\\Documents&#45;&gt;\\Controller\\Base</title>
<path fill="none" stroke="black" d="M597.736,-441.009C547.672,-441.058 460.242,-437.147 390,-413 352.741,-400.192 314.975,-375.294 289.629,-356.467"/>
<polygon fill="none" stroke="black" points="291.615,-353.581 281.528,-350.341 287.393,-359.164 291.615,-353.581"/>
</g>
<!-- \\Controller\\Feed -->
<g id="node20" class="node"><title>\\Controller\\Feed</title>
<polygon fill="none" stroke="black" points="665,-404 611,-404 611,-368 665,-368 665,-404"/>
<text text-anchor="middle" x="638" y="-383.1" font-family="Times Roman,serif" font-size="11.00">Feed</text>
</g>
<!-- \\Controller\\Feed&#45;&gt;\\Controller\\Base -->
<g id="edge27" class="edge"><title>\\Controller\\Feed&#45;&gt;\\Controller\\Base</title>
<path fill="none" stroke="black" d="M610.732,-383.883C564.948,-380.137 469.794,-371.538 390,-359 358.104,-353.988 322.211,-346.456 296.072,-340.619"/>
<polygon fill="none" stroke="black" points="296.736,-337.181 286.211,-338.394 295.195,-344.009 296.736,-337.181"/>
</g>
<!-- \\Controller\\Users -->
<g id="node21" class="node"><title>\\Controller\\Users</title>
<polygon fill="none" stroke="black" points="1071,-323 1017,-323 1017,-287 1071,-287 1071,-323"/>
<text text-anchor="middle" x="1044" y="-302.1" font-family="Times Roman,serif" font-size="11.00">Users</text>
</g>
<!-- \\Controller\\Users&#45;&gt;\\Controller\\Authorized -->
<g id="edge29" class="edge"><title>\\Controller\\Users&#45;&gt;\\Controller\\Authorized</title>
<path fill="none" stroke="black" d="M1016.73,-303.187C948.819,-298.67 771.444,-286.874 685.733,-281.174"/>
<polygon fill="none" stroke="black" points="685.958,-277.682 675.748,-280.51 685.493,-284.666 685.958,-277.682"/>
</g>
<!-- \\Controller -->
<g id="node43" class="node"><title>\\Controller</title>
<ellipse fill="none" stroke="black" cx="64" cy="-332" rx="63.1385" ry="18.3848"/>
<text text-anchor="middle" x="64" y="-328.4" font-family="Times Roman,serif" font-size="14.00" fill="gray">\Controller</text>
</g>
<!-- \\Controller\\Base&#45;&gt;\\Controller -->
<g id="edge31" class="edge"><title>\\Controller\\Base&#45;&gt;\\Controller</title>
<path fill="none" stroke="black" d="M231.886,-332C207.607,-332 170.86,-332 137.93,-332"/>
<polygon fill="none" stroke="black" points="137.85,-328.5 127.85,-332 137.85,-335.5 137.85,-328.5"/>
</g>
<!-- \\Controller\\Sitemap -->
<g id="node23" class="node"><title>\\Controller\\Sitemap</title>
<polygon fill="none" stroke="black" points="669,-350 607,-350 607,-314 669,-314 669,-350"/>
<text text-anchor="middle" x="638" y="-329.1" font-family="Times Roman,serif" font-size="11.00">Sitemap</text>
</g>
<!-- \\Controller\\Sitemap&#45;&gt;\\Controller\\Base -->
<g id="edge33" class="edge"><title>\\Controller\\Sitemap&#45;&gt;\\Controller\\Base</title>
<path fill="none" stroke="black" d="M606.985,-332C537.815,-332 371.15,-332 296.39,-332"/>
<polygon fill="none" stroke="black" points="296.049,-328.5 286.049,-332 296.049,-335.5 296.049,-328.5"/>
</g>
<!-- \\Controller\\Messages -->
<g id="node24" class="node"><title>\\Controller\\Messages</title>
<polygon fill="none" stroke="black" points="1079,-269 1009,-269 1009,-233 1079,-233 1079,-269"/>
<text text-anchor="middle" x="1044" y="-248.1" font-family="Times Roman,serif" font-size="11.00">Messages</text>
</g>
<!-- \\Controller\\Messages&#45;&gt;\\Controller\\Authorized -->
<g id="edge35" class="edge"><title>\\Controller\\Messages&#45;&gt;\\Controller\\Authorized</title>
<path fill="none" stroke="black" d="M1008.33,-253.372C935.214,-258.235 768.332,-269.333 685.895,-274.815"/>
<polygon fill="none" stroke="black" points="685.541,-271.331 675.795,-275.487 686.006,-278.315 685.541,-271.331"/>
</g>
<!-- \\Controller\\Robots -->
<g id="node25" class="node"><title>\\Controller\\Robots</title>
<polygon fill="none" stroke="black" points="665,-242 611,-242 611,-206 665,-206 665,-242"/>
<text text-anchor="middle" x="638" y="-221.1" font-family="Times Roman,serif" font-size="11.00">Robots</text>
</g>
<!-- \\Controller\\Robots&#45;&gt;\\Controller\\Base -->
<g id="edge37" class="edge"><title>\\Controller\\Robots&#45;&gt;\\Controller\\Base</title>
<path fill="none" stroke="black" d="M610.693,-222.032C563.632,-219.695 465.075,-219.483 390,-251 351.854,-267.014 353.868,-289.382 318,-310 311.069,-313.984 303.284,-317.487 295.698,-320.459"/>
<polygon fill="none" stroke="black" points="294.445,-317.19 286.275,-323.935 296.868,-323.757 294.445,-317.19"/>
</g>
</g>
</svg>
